<svg aria-hidden="true" style="position: absolute; width: 0; height: 0; overflow: hidden;" version="1.1" xmlns="http://www.w3.org/2000/svg" xmlns:xlink="http://www.w3.org/1999/xlink">
<defs>
<symbol id="icon-X" viewBox="0 0 32 32">
<path  d="M0 6.539c0-3.611 2.927-6.539 6.539-6.539h9.511c3.611 0 6.539 2.927 6.539 6.539v2.378c0 0.985-0.799 1.783-1.783 1.783s-1.783-0.798-1.783-1.783v-2.378c0-1.641-1.331-2.972-2.972-2.972h-2.972v20.211h2.972c0.985 0 1.783 0.798 1.783 1.783s-0.798 1.783-1.783 1.783h-9.511c-0.985 0-1.783-0.798-1.783-1.783s0.798-1.783 1.783-1.783h2.972v-20.211h-2.972c-1.641 0-2.972 1.331-2.972 2.972v2.378c0 0.985-0.798 1.783-1.783 1.783s-1.783-0.798-1.783-1.783v-2.378zM38.238 19.589c0.78 0 1.412-0.632 1.412-1.412s-0.632-1.412-1.412-1.412l-9.236 0v-9.236c0-0.78-0.632-1.412-1.412-1.412s-1.412 0.632-1.412 1.412v9.236h-9.236c-0.78 0-1.412 0.632-1.412 1.412s0.632 1.412 1.412 1.412h9.236l-0 9.236c0 0.78 0.632 1.412 1.412 1.412s1.412-0.632 1.412-1.412v-9.236h9.236z"></path>
</symbol>
<symbol id="icon-phone" viewBox="0 0 32 32">
<path d="M10.816 3.967c-0.651-0.6-1.523-0.967-2.481-0.967s-1.831 0.368-2.484 0.969l0.003-0.002c-0.057 0.053-0.119 0.115-0.197 0.193l-1.197 1.197c-0.901 0.901-1.458 2.146-1.458 3.521 0 0.383 0.043 0.757 0.125 1.115l-0.006-0.033c2.151 9.441 9.452 16.742 18.726 18.861l0.167 0.032c0.325 0.075 0.698 0.119 1.081 0.119 1.375 0 2.621-0.557 3.522-1.459l1.197-1.197c0.080-0.080 0.14-0.14 0.193-0.197 0.6-0.651 0.968-1.524 0.968-2.483 0-1.055-0.446-2.007-1.16-2.676l-0.002-0.002-1.96-1.96c-0.847-0.846-2.016-1.37-3.308-1.37-0.676 0-1.319 0.143-1.899 0.402l0.030-0.012c-0.315 0.141-0.683 0.223-1.070 0.223-0.74 0-1.409-0.3-1.894-0.784l-3.196-3.196c-0.484-0.485-0.783-1.154-0.783-1.893 0-0.387 0.082-0.756 0.23-1.088l-0.007 0.017c0.246-0.55 0.389-1.192 0.389-1.868 0-1.293-0.524-2.463-1.372-3.31l-1.96-1.96c-0.064-0.065-0.128-0.128-0.194-0.19l-0.003-0.003zM7.207 5.44c0.296-0.273 0.692-0.44 1.128-0.44s0.832 0.167 1.129 0.441l-0.001-0.001 0.152 0.149 1.945 1.944c0.779 0.779 1.001 1.955 0.561 2.964-0.246 0.551-0.39 1.193-0.39 1.87 0 1.292 0.524 2.462 1.371 3.309l3.195 3.195c0.847 0.847 2.017 1.371 3.309 1.371 0.676 0 1.319-0.143 1.899-0.402l-0.030 0.012c0.315-0.141 0.684-0.223 1.071-0.223 0.739 0 1.408 0.299 1.893 0.783l-0-0 2.095 2.097c0.273 0.296 0.44 0.692 0.44 1.128s-0.167 0.832-0.441 1.129l0.001-0.001c-0.050 0.052-0.1 0.102-0.149 0.151l-0.001 0.001-1.181 1.181c-0.721 0.72-1.76 1.024-2.755 0.803-8.684-1.977-15.399-8.692-17.348-17.222l-0.030-0.154c-0.045-0.194-0.071-0.416-0.071-0.645 0-0.823 0.334-1.569 0.873-2.108v0l1.181-1.183 0.152-0.149z"></path>
</symbol>
<symbol id="icon-eye" viewBox="0 0 32 32">
<path d="M27.707 18.5h-0.001zM27.707 13.5v0zM28.883 16v0zM4.295 18.5h-0.001zM4.295 13.5v0zM3.116 16v0zM3.481 19.083c1.159 1.613 2.88 3.731 4.987 5.456 2.097 1.716 4.679 3.128 7.532 3.128v-2c-2.195 0-4.333-1.096-6.264-2.675-1.919-1.571-3.524-3.536-4.629-5.076l-1.625 1.167zM16 27.667c2.855 0 5.436-1.412 7.531-3.128 2.107-1.725 3.829-3.844 4.987-5.456l-1.624-1.167c-1.107 1.54-2.712 3.505-4.629 5.076-1.929 1.579-4.069 2.675-6.264 2.675v2zM28.519 12.917c-1.159-1.613-2.88-3.732-4.987-5.456-2.097-1.716-4.679-3.128-7.532-3.128v2c2.195 0 4.333 1.095 6.264 2.675 1.919 1.571 3.524 3.536 4.629 5.076l1.625-1.167zM16 4.333c-2.855 0-5.436 1.412-7.531 3.128-2.107 1.724-3.829 3.844-4.987 5.456l1.624 1.167c1.107-1.54 2.711-3.505 4.629-5.076 1.929-1.58 4.069-2.675 6.264-2.675v-2zM28.519 19.083c0.739-1.029 1.365-1.844 1.365-3.083h-2c0 0.477-0.159 0.757-0.991 1.916l1.625 1.167zM26.893 14.083c0.832 1.16 0.991 1.44 0.991 1.917h2c0-1.239-0.627-2.053-1.365-3.083l-1.625 1.167zM5.107 17.917c-0.832-1.159-0.991-1.439-0.991-1.916h-2c0 1.239 0.627 2.053 1.365 3.083l1.625-1.167zM3.48 12.917c-0.739 1.029-1.365 1.844-1.365 3.083h2c0-0.477 0.159-0.757 0.991-1.916l-1.625-1.167zM11 16c0 2.761 2.239 5 5 5v0-2c-1.657 0-3-1.343-3-3v0h-2zM16 21c2.761 0 5-2.239 5-5v0h-2c0 1.657-1.343 3-3 3v0 2zM21 16c0-2.761-2.239-5-5-5v0 2c1.657 0 3 1.343 3 3v0h2zM16 11c-2.761 0-5 2.239-5 5v0h2c0-1.657 1.343-3 3-3v0-2z"></path>
</symbol>
<symbol id="icon-telegram" viewBox="0 0 32 32">
<path fill="none" stroke="#fff" style="stroke: var(--color1, #fff)" stroke-linejoin="miter" stroke-linecap="butt" stroke-miterlimit="4" stroke-width="0.6667" d="M8 0.333h16c4.234 0 7.667 3.432 7.667 7.667v16c0 4.234-3.432 7.667-7.667 7.667h-16c-4.234 0-7.667-3.432-7.667-7.667v-16c0-4.234 3.432-7.667 7.667-7.667z"></path>
<path fill="#fff" style="fill: var(--color1, #fff)" d="M22.907 9.592c-0.063 0.009-0.138 0.027-0.194 0.045-0.046 0.015-13.623 5.22-13.737 5.265-0.215 0.087-0.408 0.203-0.52 0.315-0.099 0.1-0.147 0.197-0.147 0.299 0 0.173 0.147 0.327 0.421 0.437 0.044 0.018 0.762 0.244 1.847 0.582l1.775 0.553 4.183-2.621c2.459-1.541 4.004-2.507 4.037-2.522 0.079-0.042 0.173-0.067 0.272-0.067 0.004 0 0.008 0 0.011 0h-0.001c0.099 0.005 0.147 0.040 0.147 0.106 0 0.033-0.013 0.063-0.041 0.1-0.015 0.021-6.586 5.936-6.611 5.953-0.003 0.002-0.054 0.685-0.133 1.784l-0.127 1.792c0 0.011 0.001 0.012 0.045 0.012 0.16 0 0.327-0.057 0.457-0.154 0.031-0.023 0.092-0.077 0.136-0.119l0.927-0.887c0.467-0.446 0.849-0.811 0.851-0.812s0.8 0.581 1.771 1.295l1.767 1.297 0.091 0.045c0.108 0.053 0.173 0.078 0.267 0.101 0.187 0.047 0.34 0.037 0.48-0.032 0.193-0.095 0.339-0.315 0.424-0.635 0.011-0.041 2.213-10.365 2.347-11 0.023-0.104 0.033-0.193 0.036-0.312 0.001-0.019 0.002-0.041 0.002-0.063 0-0.077-0.008-0.152-0.023-0.225l0.001 0.007c-0.053-0.264-0.215-0.453-0.443-0.519-0.063-0.018-0.135-0.028-0.21-0.028-0.039 0-0.077 0.003-0.114 0.008l0.004-0.001z"></path>
</symbol>
<symbol id="icon-fb" viewBox="0 0 32 32">
<path fill="none" stroke="#fff" style="stroke: var(--color1, #fff)" stroke-linejoin="miter" stroke-linecap="butt" stroke-miterlimit="4" stroke-width="0.6667" d="M8 0.333h16c4.234 0 7.667 3.432 7.667 7.667v16c0 4.234-3.432 7.667-7.667 7.667h-16c-4.234 0-7.667-3.432-7.667-7.667v-16c0-4.234 3.432-7.667 7.667-7.667z"></path>
<path fill="#fff" style="fill: var(--color1, #fff)" d="M15.75 8.7c-0.55 0.4-1.050 1.55-1.2 2.85-0.25 1.8-0.5 2.25-1.4 2.35-1.6 0.25-1.6 2.45 0 2.7 1 0.15 1.1 0.45 1.25 3.8 0.15 3.45 0.2 3.6 1.35 3.6s1.2-0.15 1.35-3.6c0.15-3.4 0.25-3.65 1.4-3.9 0.8-0.2 1.3-0.7 1.4-1.4 0.15-0.9-0.050-1.1-1.15-1.1-0.7 0-1.4-0.3-1.55-0.7-0.4-1.1 0.7-2.8 1.8-2.8 0.75 0 1-0.35 1-1.25 0-1.1-0.2-1.25-1.65-1.25-0.9 0-2.1 0.3-2.6 0.7z"></path>
</symbol>
<symbol id="icon-select24" viewBox="0 0 32 32">
<path stroke-linejoin="miter" stroke-linecap="round" stroke-miterlimit="4" stroke-width="2.6667" d="M22.667 13.333l-2.329 2.351c-1.859 1.875-2.787 2.812-3.92 2.956-0.125 0.017-0.27 0.026-0.417 0.026s-0.292-0.010-0.434-0.028l0.017 0.002c-1.133-0.144-2.061-1.081-3.92-2.956l-2.329-2.351"></path>
</symbol>
<symbol id="icon-T" viewBox="0 0 41 32">
<path fill="#fafafa" style="fill: var(--color1, #fafafa)" d="M0 6.539c0-3.611 2.927-6.539 6.539-6.539h9.511c3.611 0 6.539 2.927 6.539 6.539v2.378c0 0.985-0.799 1.783-1.783 1.783s-1.783-0.798-1.783-1.783v-2.378c0-1.641-1.331-2.972-2.972-2.972h-2.972v20.211h2.972c0.985 0 1.783 0.798 1.783 1.783s-0.798 1.783-1.783 1.783h-9.511c-0.985 0-1.783-0.798-1.783-1.783s0.798-1.783 1.783-1.783h2.972v-20.211h-2.972c-1.641 0-2.972 1.331-2.972 2.972v2.378c0 0.985-0.798 1.783-1.783 1.783s-1.783-0.798-1.783-1.783v-2.378zM38.238 19.589c0.78 0 1.412-0.632 1.412-1.412s-0.632-1.412-1.412-1.412l-9.236 0v-9.236c0-0.78-0.632-1.412-1.412-1.412s-1.412 0.632-1.412 1.412v9.236h-9.236c-0.78 0-1.412 0.632-1.412 1.412s0.632 1.412 1.412 1.412h9.236l-0 9.236c0 0.78 0.632 1.412 1.412 1.412s1.412-0.632 1.412-1.412v-9.236h9.236z"></path>
</symbol>
<symbol id="icon-IconX" viewBox="0 0 32 32">
<path stroke-linejoin="miter" stroke-linecap="round" stroke-miterlimit="4" stroke-width="2.6667" d="M8 8l16 16M8 24l16-16"></path>
</symbol>
<symbol id="icon-t1" viewBox="0 0 32 32">
<path d="M9.754 9.333c-1.705 0-3.088 1.382-3.088 3.088v1.123c0 0.465 0.377 0.842 0.842 0.842s0.842-0.377 0.842-0.842v-1.123c0-0.775 0.628-1.403 1.403-1.403h1.403v9.544h-1.403c-0.465 0-0.842 0.377-0.842 0.842s0.377 0.842 0.842 0.842h4.491c0.465 0 0.842-0.377 0.842-0.842s-0.377-0.842-0.842-0.842h-1.403v-9.544h1.403c0.775 0 1.403 0.628 1.403 1.403v1.123c0 0.465 0.377 0.842 0.842 0.842s0.842-0.377 0.842-0.842v-1.123c0-1.705-1.382-3.088-3.088-3.088h-4.491z"></path>
<path stroke-linejoin="miter" stroke-linecap="round" stroke-miterlimit="4" stroke-width="2" d="M22.209 12v7.542M18.438 15.771h7.543"></path>
</symbol>
<symbol id="icon-t2" viewBox="0 0 32 32">
<path d="M6.526 6.667c-2.132 0-3.86 1.728-3.86 3.86v1.403c0 0.581 0.471 1.053 1.053 1.053s1.053-0.471 1.053-1.053v-1.403c0-0.969 0.785-1.754 1.754-1.754h1.754v11.93h-1.754c-0.581 0-1.053 0.471-1.053 1.053s0.471 1.053 1.053 1.053h5.614c0.581 0 1.053-0.471 1.053-1.053s-0.471-1.053-1.053-1.053h-1.754v-11.93h1.754c0.969 0 1.754 0.785 1.754 1.754v1.403c0 0.581 0.471 1.053 1.053 1.053s1.053-0.471 1.053-1.053v-1.403c0-2.132-1.728-3.86-3.86-3.86h-5.614z"></path>
<path stroke-linejoin="miter" stroke-linecap="round" stroke-miterlimit="4" stroke-width="2" d="M22.209 9.333l-0 15.085M14.667 16.876h15.085"></path>
</symbol>
<symbol id="icon-t3" viewBox="0 0 32 32">
<path d="M7.298 5.333c-2.558 0-4.632 2.074-4.632 4.632v1.684c0 0.698 0.566 1.263 1.263 1.263s1.263-0.566 1.263-1.263v-1.684c0-1.163 0.943-2.105 2.105-2.105h2.105v14.316h-2.105c-0.698 0-1.263 0.565-1.263 1.263s0.566 1.263 1.263 1.263h6.737c0.698 0 1.263-0.565 1.263-1.263s-0.566-1.263-1.263-1.263h-2.105v-14.316h2.105c1.163 0 2.105 0.943 2.105 2.105v1.684c0 0.698 0.565 1.263 1.263 1.263s1.263-0.566 1.263-1.263v-1.684c0-2.558-2.074-4.632-4.632-4.632h-6.737z"></path>
<path stroke-linejoin="miter" stroke-linecap="round" stroke-miterlimit="4" stroke-width="2" d="M22.209 10.667v15.085M14.667 18.209h15.085"></path>
</symbol>
<symbol id="icon-whiteBlack" viewBox="0 0 32 32">
<path fill="#000" style="fill: var(--color1, #000)" d="M16 1.667c-7.916 0-14.333 6.417-14.333 14.333s6.417 14.333 14.333 14.333c7.916 0 14.333-6.417 14.333-14.333s-6.417-14.333-14.333-14.333zM3.667 16c0-6.811 5.522-12.333 12.333-12.333s12.333 5.522 12.333 12.333c0 6.811-5.522 12.333-12.333 12.333s-12.333-5.522-12.333-12.333z"></path>
<path fill="#031a30" style="fill: var(--color2, #031a30)" d="M16 29.333c7.916 0 14-4.421 14-12.337 0-7.805-6.238-14.152-14-14.33v26.667z"></path>
</symbol>
<symbol id="icon-bw" viewBox="0 0 32 32">
<path fill="#fff" style="fill: var(--color1, #fff)" d="M16 1.667c-7.916 0-14.333 6.417-14.333 14.333s6.417 14.333 14.333 14.333c7.916 0 14.333-6.417 14.333-14.333s-6.417-14.333-14.333-14.333zM3.667 16c0-6.811 5.522-12.333 12.333-12.333s12.333 5.522 12.333 12.333c0 6.811-5.522 12.333-12.333 12.333s-12.333-5.522-12.333-12.333z"></path>
<path fill="#fff" style="fill: var(--color1, #fff)" d="M16 29.333c7.916 0 14-4.421 14-12.337 0-7.805-6.238-14.152-14-14.33v26.667z"></path>
</symbol>
<symbol id="icon-minus" viewBox="0 0 32 32">
<path stroke-linejoin="miter" stroke-linecap="round" stroke-miterlimit="4" stroke-width="2" d="M4.686 16h22.627"></path>
</symbol>
<symbol id="icon-plus" viewBox="0 0 32 32">
<path stroke-linejoin="miter" stroke-linecap="round" stroke-miterlimit="4" stroke-width="2" d="M4.686 16h22.627M16 27.314v-22.627"></path>
</symbol>
<symbol id="icon-clock" viewBox="0 0 32 32">
<path d="M7.958 2.448c0.431-0.345 0.501-0.974 0.156-1.406s-0.974-0.501-1.406-0.156l-3.333 2.667c-0.431 0.345-0.501 0.974-0.156 1.406s0.974 0.501 1.406 0.156l3.333-2.667z"></path>
<path d="M25.291 0.886c-0.431-0.345-1.061-0.275-1.406 0.156s-0.275 1.061 0.156 1.406l3.333 2.667c0.431 0.345 1.061 0.275 1.406-0.156s0.275-1.061-0.156-1.406l-3.333-2.667z"></path>
<path d="M17 10.667c0-0.552-0.448-1-1-1s-1 0.448-1 1v3.634c0 0.712 0 1.317 0.049 1.819 0.053 0.535 0.167 1.031 0.442 1.507s0.647 0.823 1.084 1.136c0.41 0.294 0.935 0.597 1.551 0.953l0.838 0.484c0.478 0.276 1.090 0.112 1.366-0.366s0.112-1.090-0.366-1.366l-0.797-0.46c-0.667-0.385-1.105-0.639-1.426-0.869-0.303-0.217-0.435-0.367-0.517-0.51s-0.147-0.332-0.183-0.703c-0.039-0.393-0.040-0.899-0.040-1.67v-3.587z"></path>
<path d="M16 1.667c-7.916 0-14.333 6.417-14.333 14.333s6.417 14.333 14.333 14.333c7.916 0 14.333-6.417 14.333-14.333s-6.417-14.333-14.333-14.333zM3.667 16c0-6.811 5.522-12.333 12.333-12.333s12.333 5.522 12.333 12.333c0 6.812-5.522 12.333-12.333 12.333s-12.333-5.522-12.333-12.333z"></path>
</symbol>
<symbol id="icon-Information" viewBox="0 0 32 32">
<path fill="none" stroke="#031a30" style="stroke: var(--color1, #031a30)" stroke-linejoin="miter" stroke-linecap="round" stroke-miterlimit="4" stroke-width="2.1818" d="M16 14.545v8.727M30.545 16c0 8.033-6.512 14.545-14.545 14.545s-14.545-6.512-14.545-14.545c0-8.033 6.512-14.545 14.545-14.545s14.545 6.512 14.545 14.545z"></path>
<path d="M17.455 10.182c0 0.803-0.651 1.455-1.455 1.455s-1.455-0.651-1.455-1.455 0.651-1.455 1.455-1.455 1.455 0.651 1.455 1.455z"></path>
</symbol>
<symbol id="icon-Tick" viewBox="0 0 45 32">
<path stroke-linejoin="miter" stroke-linecap="round" stroke-miterlimit="4" stroke-width="3.2" d="M40.696 6.358c0.566-0.679 0.474-1.688-0.205-2.253s-1.688-0.474-2.253 0.205l-11.5 13.8c-2.31 2.772-3.935 4.716-5.345 5.989-1.377 1.243-2.327 1.638-3.259 1.638s-1.883-0.395-3.259-1.638c-1.409-1.273-3.035-3.217-5.345-5.989l-2.967-3.56c-0.566-0.679-1.575-0.771-2.253-0.205s-0.771 1.575-0.205 2.253l3.049 3.659c2.209 2.65 3.977 4.773 5.576 6.216 1.651 1.491 3.339 2.463 5.404 2.463s3.753-0.972 5.404-2.463c1.599-1.444 3.367-3.566 5.576-6.216l11.582-13.899z"></path>
</symbol>
<symbol id="icon-download" viewBox="0 0 32 32">
<path d="M9.624 27.918v0zM4.082 22.376v0zM27.918 22.376v0zM22.376 27.918v0zM27.733 13.866c-0.442-0.589-1.278-0.708-1.867-0.265s-0.708 1.278-0.265 1.867l2.132-1.602zM6.399 15.467c0.442-0.589 0.323-1.425-0.265-1.867s-1.425-0.323-1.867 0.265l2.132 1.602zM17.333 4c0-0.736-0.597-1.333-1.333-1.333s-1.333 0.597-1.333 1.333h2.667zM11.711 16.505c-0.457-0.577-1.296-0.674-1.873-0.216s-0.674 1.296-0.216 1.873l2.090-1.657zM12.53 19.684v0zM19.47 19.684v0zM22.378 18.162c0.457-0.577 0.361-1.416-0.216-1.873s-1.416-0.361-1.873 0.216l2.090 1.657zM15.666 22.64v0zM16.334 22.64v0zM26.667 18.667v1.333h2.667v-1.333h-2.667zM20 26.667h-8v2.667h8v-2.667zM5.333 20v-1.333h-2.667v1.333h2.667zM12 26.667c-1.29 0-1.779-0.004-2.168-0.066l-0.417 2.634c0.648 0.103 1.397 0.099 2.585 0.099v-2.667zM2.667 20c0 1.188-0.004 1.937 0.099 2.585l2.634-0.417c-0.062-0.388-0.066-0.878-0.066-2.168h-2.667zM9.832 26.601c-2.282-0.361-4.072-2.151-4.433-4.433l-2.634 0.417c0.542 3.423 3.227 6.108 6.65 6.65l0.417-2.634zM26.667 20c0 1.29-0.004 1.779-0.066 2.168l2.634 0.417c0.103-0.648 0.099-1.397 0.099-2.585h-2.667zM20 29.333c1.188 0 1.937 0.004 2.585-0.099l-0.417-2.634c-0.388 0.061-0.878 0.066-2.168 0.066v2.667zM26.601 22.168c-0.361 2.282-2.151 4.072-4.433 4.433l0.417 2.634c3.423-0.542 6.108-3.227 6.65-6.65l-2.634-0.417zM29.333 18.667c0-1.799-0.596-3.464-1.6-4.801l-2.132 1.602c0.669 0.891 1.066 1.997 1.066 3.199h2.667zM5.333 18.667c0-1.202 0.396-2.308 1.066-3.199l-2.132-1.602c-1.004 1.337-1.6 3.001-1.6 4.801h2.667zM14.667 4v17.333h2.667v-17.333h-2.667zM9.622 18.162l1.864 2.351 2.090-1.657-1.864-2.351-2.090 1.657zM20.514 20.512l1.864-2.351-2.090-1.657-1.864 2.351 2.089 1.657zM11.486 20.512c0.723 0.912 1.335 1.687 1.886 2.239 0.557 0.559 1.217 1.067 2.085 1.205l0.42-2.633c-0.038-0.006-0.202-0.039-0.615-0.454-0.419-0.42-0.922-1.051-1.685-2.014l-2.090 1.657zM18.425 18.856c-0.763 0.963-1.267 1.594-1.685 2.014-0.413 0.414-0.577 0.447-0.615 0.454l0.42 2.633c0.868-0.138 1.528-0.646 2.085-1.205 0.551-0.553 1.163-1.328 1.885-2.239l-2.089-1.657zM15.456 23.957c0.18 0.029 0.362 0.043 0.544 0.043v-2.667c-0.041 0-0.083-0.003-0.124-0.010l-0.42 2.633zM16 24c0.182 0 0.364-0.014 0.544-0.043l-0.42-2.633c-0.042 0.007-0.083 0.010-0.124 0.010v2.667zM14.667 21.333v1.333h2.667v-1.333h-2.667z"></path>
</symbol>
<symbol id="icon-tolerant" viewBox="0 0 32 32">
<path stroke-linejoin="miter" stroke-linecap="round" stroke-miterlimit="4" stroke-width="2.6667" d="M16 9.333v8M16 28c-6.063 0-9.094 0-10.847-1.273-1.529-1.111-2.514-2.818-2.712-4.697-0.226-2.154 1.289-4.779 4.321-10.030s4.547-7.876 6.526-8.757c1.726-0.768 3.697-0.768 5.423 0 1.979 0.881 3.495 3.506 6.526 8.757s4.547 7.876 4.321 10.030c-0.197 1.879-1.183 3.586-2.712 4.697-1.752 1.273-4.784 1.273-10.847 1.273z"></path>
<path d="M17.333 21.333c0 0.736-0.597 1.333-1.333 1.333s-1.333-0.597-1.333-1.333c0-0.736 0.597-1.333 1.333-1.333s1.333 0.597 1.333 1.333z"></path>
</symbol>
<symbol id="icon-critical" viewBox="0 0 32 32">
<path d="M17.333 21.333c0 0.736-0.597 1.333-1.333 1.333s-1.333-0.597-1.333-1.333c0-0.736 0.597-1.333 1.333-1.333s1.333 0.597 1.333 1.333z"></path>
<path stroke-linejoin="miter" stroke-linecap="round" stroke-miterlimit="4" stroke-width="2.6667" d="M16 9.333v8M29.333 16c0 7.364-5.97 13.333-13.333 13.333s-13.333-5.97-13.333-13.333c0-7.364 5.97-13.333 13.333-13.333s13.333 5.97 13.333 13.333z"></path>
</symbol>
<symbol id="icon-howAreYou" viewBox="0 0 120 32">
<path d="M109.163 0.326c1.569-0.411 2.714-0.431 4.438-0.076 3.165 0.65 5.147 2.57 6.041 5.852 0.393 1.444 0.48 4.649 0.173 6.343-0.575 3.162-2.101 4.979-5.016 5.97-0.662 0.225-1.739 3.48-1.943 5.875l-0.115 1.343h-2.621l0.117-1.4c0.144-1.726 0.503-3.472 0.963-4.682 0.192-0.505 0.331-0.933 0.31-0.951-0.022-0.018-0.514-0.271-1.095-0.562-1.902-0.954-2.848-2.462-2.984-4.759-0.098-1.664 0.213-2.588 1.209-3.584 1.846-1.846 5.292-1.51 6.561 0.64 0.475 0.805 0.863 2.333 0.863 3.394 0 0.727 0.037 0.821 0.254 0.641 0.444-0.368 0.918-1.951 1.042-3.473 0.273-3.374-0.574-6.134-2.222-7.235-1.142-0.763-2.016-0.991-3.754-0.979-1.265 0.009-1.633 0.085-2.601 0.537-1.323 0.618-2.421 1.689-2.982 2.91-0.353 0.767-0.396 1.116-0.379 3.034 0.016 1.808 0.091 2.387 0.453 3.495l0.434 1.328-1.060 0.45c-0.583 0.247-1.147 0.45-1.252 0.449-0.205-0.001-0.785-1.727-1.095-3.26-0.268-1.322-0.23-4.129 0.072-5.289 0.788-3.025 3.002-5.175 6.189-6.010zM0.295 8.080l-0.051-1.344h20.811l0.1 0.399c0.055 0.22 0.076 0.824 0.047 1.344l-0.054 0.944-8.814 0.173-0.030 11.008-0.030 11.008h-3.088l-0.045-11.049-0.045-11.049-8.752-0.093-0.051-1.344zM22.838 19.175l-0.044-12.439h3.123v9.896c0 7.839 0.045 9.882 0.217 9.825 0.119-0.039 0.834-0.962 1.588-2.051s2.357-3.385 3.56-5.101c1.204-1.716 3.668-5.244 5.476-7.84l3.288-4.72 3.034-0.009v24.964h-3.12l-0.006-10.012-0.006-10.012-0.348 0.418c-0.413 0.496-7.572 10.701-11.932 17.010l-1.803 2.608-2.982-0.099-0.044-12.439zM62.314 6.919c0.529-0.078 3.614-0.132 6.856-0.119l5.894 0.023v24.791l-3.207 0.1v-10.437l-4.204 0.055c-4.83 0.063-5.188 0.15-6.025 1.471-0.455 0.718-0.569 1.157-1.318 5.085-0.626 3.282-1.833 4.35-4.605 4.071l-1.184-0.119v-0.565c0-0.311-0.051-0.939-0.114-1.396l-0.114-0.831 1.082 0.098c1.332 0.121 1.634-0.113 1.892-1.46 0.762-3.98 0.952-4.81 1.269-5.547 0.338-0.786 1.498-2.053 1.879-2.053 0.095 0 0.173-0.078 0.173-0.173s-0.127-0.173-0.282-0.173c-0.475 0-2.017-0.978-2.787-1.767-1.026-1.052-1.483-2.179-1.576-3.883-0.093-1.698 0.227-2.952 1.061-4.168 1.019-1.486 3.129-2.678 5.309-3.002zM78.871 6.953c-0.046 0.119-0.063 5.717-0.038 12.439l0.045 12.222 3.034 0.1v-11.109h4.486l1.886 2.47c1.037 1.359 2.808 3.68 3.936 5.158 2.92 3.829 2.455 3.467 4.459 3.467 0.979 0 1.704-0.071 1.704-0.167 0-0.092-0.218-0.424-0.484-0.737s-1.218-1.545-2.114-2.736-2.746-3.623-4.109-5.402c-1.364-1.779-2.48-3.332-2.48-3.452s0.457-0.809 1.015-1.533c0.558-0.723 2.634-3.461 4.612-6.083l3.597-4.767-1.683-0.050c-1.886-0.056-1.873-0.062-2.877 1.263-0.362 0.477-1.5 1.961-2.531 3.299s-2.576 3.347-3.434 4.466l-1.56 2.034-4.334-0.091-0.092-11.009h-1.477c-1.022 0-1.502 0.067-1.559 0.217zM63.228 9.53c-2.782 0.463-4.208 2.293-3.982 5.108 0.109 1.362 0.694 2.428 1.694 3.090 1.166 0.772 2.557 0.965 6.973 0.968l3.944 0.003v-9.361l-3.857 0.020c-2.122 0.011-4.269 0.089-4.772 0.172zM110.591 11.471c-0.589 0.507-0.757 1.796-0.356 2.738 0.386 0.909 1.372 1.716 2.096 1.716 0.563 0 0.6-0.041 0.861-0.937 0.317-1.092 0.338-1.679 0.092-2.566-0.352-1.268-1.751-1.762-2.693-0.951zM109.65 29.447v2.254h3.641v-4.507h-3.641v2.254z"></path>
</symbol>
<symbol id="icon-arrowDiagonal" viewBox="0 0 32 32">
<path stroke-linejoin="miter" stroke-linecap="round" stroke-miterlimit="4" stroke-width="1.3333" d="M15.053 6.514c-0.552 0.002-0.998 0.452-0.996 1.004s0.452 0.998 1.005 0.996l3.309-0.015c1.343-0.006 2.266-0.009 2.969 0.068 0.228 0.025 0.419 0.057 0.581 0.096l-14.171 14.171c-0.391 0.391-0.391 1.024 0 1.414s1.024 0.391 1.414 0l14.171-14.171c0.039 0.162 0.071 0.353 0.096 0.582 0.077 0.703 0.074 1.626 0.068 2.969l-0.015 3.309c-0.003 0.552 0.443 1.002 0.995 1.005s1.002-0.443 1.005-0.996l0.015-3.369c0.006-1.269 0.010-2.306-0.080-3.135-0.094-0.862-0.302-1.626-0.81-2.283-0.111-0.144-0.232-0.281-0.36-0.409s-0.265-0.249-0.409-0.36c-0.657-0.508-1.421-0.716-2.283-0.81-0.829-0.091-1.867-0.086-3.135-0.080l-3.369 0.015z"></path>
</symbol>
<symbol id="icon-arrowDiagonal" viewBox="0 0 32 32">
<path stroke-linejoin="miter" stroke-linecap="round" stroke-miterlimit="4" stroke-width="1.3333" d="M15.053 6.514c-0.552 0.002-0.998 0.452-0.996 1.004s0.452 0.998 1.005 0.996l3.309-0.015c1.343-0.006 2.266-0.009 2.969 0.068 0.228 0.025 0.419 0.057 0.581 0.096l-14.171 14.171c-0.391 0.391-0.391 1.024 0 1.414s1.024 0.391 1.414 0l14.171-14.171c0.039 0.162 0.071 0.353 0.096 0.582 0.077 0.703 0.074 1.626 0.068 2.969l-0.015 3.309c-0.003 0.552 0.443 1.002 0.995 1.005s1.002-0.443 1.005-0.996l0.015-3.369c0.006-1.269 0.010-2.306-0.080-3.135-0.094-0.862-0.302-1.626-0.81-2.283-0.111-0.144-0.232-0.281-0.36-0.409s-0.265-0.249-0.409-0.36c-0.657-0.508-1.421-0.716-2.283-0.81-0.829-0.091-1.867-0.086-3.135-0.080l-3.369 0.015z"></path>
</symbol>
<symbol id="icon-slide-left" viewBox="0 0 48 32">
<path d="M45.333 18c1.105 0 2-0.895 2-2s-0.895-2-2-2v4zM2.667 14c-1.105 0-2 0.895-2 2s0.895 2 2 2v-4zM11.925 30.754c0.785 0.777 2.051 0.772 2.828-0.013s0.772-2.051-0.013-2.828l-2.816 2.841zM8.632 24.674v0zM8.632 7.326v0zM14.741 4.087c0.785-0.778 0.79-2.044 0.013-2.828s-2.044-0.79-2.828-0.013l2.816 2.841zM2.72 16.836v0zM2.72 15.164v0zM45.333 14h-42.667v4h42.667v-4zM14.741 27.913l-4.701-4.659-2.816 2.841 4.701 4.659 2.816-2.841zM10.040 8.747l4.701-4.66-2.816-2.841-4.701 4.659 2.816 2.841zM10.040 23.253c-1.908-1.891-3.217-3.193-4.102-4.295-0.86-1.071-1.155-1.759-1.234-2.375l-3.968 0.506c0.21 1.648 0.997 3.021 2.083 4.374 1.061 1.321 2.564 2.807 4.405 4.632l2.816-2.841zM7.224 5.906c-1.841 1.825-3.344 3.31-4.405 4.632-1.086 1.353-1.873 2.726-2.083 4.374l3.968 0.506c0.079-0.616 0.374-1.304 1.234-2.375 0.886-1.103 2.194-2.404 4.102-4.295l-2.816-2.841zM4.704 16.583c-0.049-0.387-0.049-0.778 0-1.165l-3.968-0.506c-0.092 0.723-0.092 1.454 0 2.177l3.968-0.506z"></path>
</symbol>
<symbol id="icon-slide-right" viewBox="0 0 48 32">
<path d="M2.667 14c-1.105 0-2 0.895-2 2s0.895 2 2 2v-4zM45.333 18c1.105 0 2-0.895 2-2s-0.895-2-2-2v4zM36.075 1.246c-0.785-0.778-2.051-0.772-2.828 0.013s-0.772 2.051 0.013 2.828l2.816-2.841zM39.368 7.326v0zM39.368 24.674v0zM33.259 27.913c-0.785 0.778-0.79 2.044-0.013 2.828s2.044 0.79 2.828 0.013l-2.816-2.841zM45.28 15.164v0zM45.28 16.836v0zM2.667 18h42.667v-4h-42.667v4zM33.259 4.087l4.701 4.66 2.816-2.841-4.701-4.659-2.816 2.841zM37.96 23.253l-4.701 4.659 2.816 2.841 4.701-4.659-2.816-2.841zM37.96 8.747c1.908 1.891 3.217 3.192 4.102 4.295 0.86 1.071 1.155 1.759 1.234 2.375l3.968-0.506c-0.21-1.648-0.997-3.021-2.083-4.374-1.061-1.321-2.564-2.807-4.405-4.632l-2.816 2.841zM40.776 26.094c1.841-1.825 3.344-3.31 4.405-4.632 1.086-1.353 1.873-2.726 2.083-4.374l-3.968-0.506c-0.079 0.616-0.374 1.304-1.234 2.375-0.886 1.103-2.194 2.404-4.102 4.295l2.816 2.841zM43.296 15.417c0.049 0.387 0.049 0.778 0 1.165l3.968 0.506c0.092-0.723 0.092-1.454 0-2.177l-3.968 0.506z"></path>
</symbol>
</defs>
</svg>
